# xmcd
#
# Track frame offsets: 
#        150
#        16080
#        33036
#        51863
#        72119
#        91777
#        111888
#        134018
#        150452
#        169501
#        187506
#        208060
#        222789
#        241020
#        264095
#        288391
#        307681
#        333486
#
# Disc length: 4705 seconds
#
# Revision: 0
# Processed by: cddbd v1.5.1PL0 Copyright (c) Steve Scherf et al.
# Submitted via: ExactAudioCopy v0.95a3
#
DISCID=de125f12
DTITLE=Enrique Iglesias - Greatest Hits '2000
DYEAR=2000
DGENRE=Pop
TTITLE0=The Rhytm Divine
TTITLE1=Bailamos
TTITLE2=Se Te Ne Vai
TTITLE3=Si Juras Regresar
TTITLE4=El Muro
TTITLE5=Nunca Te Olvidare
TTITLE6=Alguien Como Tu
TTITLE7=Only You (Solo En Ti)
TTITLE8=Piangerai Per Me
TTITLE9=Inventame
TTITLE10=Cosas Del Amor
TTITLE11=Esperanza
TTITLE12=Tu Vacio
TTITLE13=Para De Jugar
TTITLE14=Contigo
TTITLE15=Ruleta Rusa
TTITLE16=Desnudo
TTITLE17=Bambola Crudele
EXTD=
EXTT0=
EXTT1=
EXTT2=
EXTT3=
EXTT4=
EXTT5=
EXTT6=
EXTT7=
EXTT8=
EXTT9=
EXTT10=
EXTT11=
EXTT12=
EXTT13=
EXTT14=
EXTT15=
EXTT16=
EXTT17=
PLAYORDER=
